<?xml version="1.0" standalone="no"?>
<!DOCTYPE svg PUBLIC "-//W3C//DTD SVG 20010904//EN"
 "http://www.w3.org/TR/2001/REC-SVG-20010904/DTD/svg10.dtd">
<svg version="1.0" xmlns="http://www.w3.org/2000/svg"
 width="307.000000pt" height="307.000000pt" viewBox="0 0 307.000000 307.000000"
 preserveAspectRatio="xMidYMid meet">
<metadata>
Created by potrace 1.11, written by Peter Selinger 2001-2013
</metadata>
<g transform="translate(0.000000,307.000000) scale(0.100000,-0.100000)"
fill="#000000" stroke="none">
<path d="M1196 2913 c-1 -1 -19 -5 -40 -9 -82 -13 -155 -32 -246 -65 -71 -26
-230 -110 -230 -121 0 -5 -4 -7 -8 -4 -5 3 -24 -8 -43 -25 -19 -16 -37 -29
-41 -29 -9 0 -45 -29 -94 -76 -18 -17 -34 -31 -36 -30 -2 1 -30 -25 -63 -58
-33 -33 -53 -57 -45 -52 8 4 3 -3 -12 -16 -16 -13 -28 -27 -28 -31 0 -8 -12
-24 -46 -60 -11 -12 -27 -36 -36 -52 -32 -64 -53 -100 -60 -105 -3 -3 -10 -18
-13 -33 -4 -15 -11 -27 -17 -27 -5 0 -6 -4 -3 -10 3 -5 1 -10 -4 -10 -6 0 -11
-7 -11 -16 0 -9 -6 -30 -14 -47 -29 -66 -73 -220 -82 -287 -14 -110 -17 -147
-18 -230 0 -110 10 -232 23 -278 5 -18 8 -32 6 -32 -3 0 0 -11 5 -25 5 -14 12
-38 14 -53 10 -54 41 -152 48 -152 5 0 8 -11 8 -24 0 -14 5 -28 10 -31 6 -4 8
-11 5 -16 -4 -5 -1 -9 5 -9 6 0 8 -4 5 -10 -3 -5 -1 -10 5 -10 6 0 8 -4 5 -10
-3 -5 -1 -10 4 -10 6 0 10 -3 10 -7 -3 -16 23 -73 34 -73 6 0 8 -3 4 -6 -6 -6
52 -107 65 -112 4 -2 8 -10 8 -18 0 -8 7 -17 15 -20 8 -4 13 -10 10 -14 -2 -4
21 -34 53 -66 31 -32 50 -54 42 -49 -17 9 37 -42 119 -113 29 -26 61 -54 70
-62 16 -15 142 -96 151 -98 3 -1 26 -10 51 -21 90 -40 204 -55 279 -38 14 3
36 8 48 11 35 8 109 53 116 71 3 8 11 15 18 15 13 0 63 94 75 140 9 32 9 178
1 207 -11 38 -65 133 -72 126 -3 -3 -6 0 -6 7 0 14 -99 115 -112 115 -5 0 -12
5 -16 10 -11 17 -72 57 -72 48 0 -4 -4 -3 -8 3 -4 7 -36 24 -72 39 -85 35
-283 137 -292 150 -5 6 -8 7 -8 0 0 -7 -3 -7 -8 0 -11 15 -70 55 -81 55 -6 0
-15 8 -20 18 -6 9 -11 13 -11 9 0 -4 -11 3 -23 15 -22 22 -30 41 -44 108 -12
52 -5 196 11 250 9 30 16 56 16 58 0 1 1 4 1 7 1 3 2 8 3 13 7 27 82 173 111
213 19 27 35 51 35 54 0 9 102 105 112 105 5 0 7 4 3 9 -3 5 5 13 17 17 13 4
25 9 28 13 5 6 78 42 95 47 6 2 35 10 65 19 118 35 413 24 457 -18 13 -11 21
-22 19 -25 -3 -2 0 -9 5 -16 39 -46 49 -60 49 -67 0 -15 160 -169 175 -169 8
0 15 -4 15 -9 0 -5 32 -19 72 -32 74 -23 192 -29 211 -10 5 5 16 7 23 4 8 -3
14 -1 14 5 0 5 10 12 23 16 38 10 115 95 124 137 4 24 9 26 65 28 72 3 164
-15 198 -37 14 -9 28 -17 32 -17 3 0 18 -10 32 -22 14 -13 26 -21 26 -18 0 2
13 -8 29 -23 15 -15 27 -29 25 -31 -2 -2 6 -13 19 -23 12 -11 22 -24 22 -29 0
-5 5 -13 10 -17 18 -12 74 -128 102 -209 23 -67 27 -97 30 -219 2 -100 -1
-155 -11 -188 -8 -25 -12 -46 -10 -46 9 0 -52 -102 -78 -130 -32 -36 -125 -81
-178 -87 -31 -4 -42 1 -69 28 -18 18 -44 51 -58 73 -15 23 -30 44 -35 47 -5 3
-9 8 -8 10 4 8 -24 59 -32 59 -4 0 -7 3 -7 8 1 4 0 10 -1 15 -1 4 -3 10 -4 15
-4 18 -40 108 -48 118 -4 6 -5 14 -1 17 3 4 1 7 -5 7 -7 0 -11 3 -10 8 6 20
-66 112 -88 112 -7 0 -14 5 -16 10 -5 16 -47 24 -118 22 -81 -1 -90 -3 -90
-15 0 -6 -3 -7 -6 -4 -8 8 -58 -25 -95 -62 -27 -27 -83 -111 -74 -111 3 0 -2
-11 -11 -25 -9 -14 -14 -25 -11 -25 4 0 0 -18 -8 -40 -14 -38 -15 -190 -2
-230 2 -8 8 -30 12 -48 4 -18 12 -35 16 -38 5 -3 9 -14 9 -25 0 -10 4 -19 9
-19 5 0 11 -10 15 -23 3 -13 17 -36 31 -51 14 -15 25 -30 25 -33 0 -9 143
-144 147 -139 3 2 13 -4 24 -15 11 -11 24 -17 29 -14 6 4 10 2 10 -4 0 -8 75
-42 103 -47 4 -1 8 -2 10 -4 1 -1 9 -3 17 -5 8 -2 26 -7 40 -11 81 -21 274 -7
338 25 9 5 39 19 65 32 26 12 59 33 72 45 13 12 26 20 28 18 8 -8 140 139 181
204 55 86 97 168 89 176 -4 3 -2 6 4 6 6 0 18 21 27 47 10 27 20 55 23 63 4 8
7 18 8 23 2 4 3 8 5 10 2 3 7 26 15 71 4 21 9 48 11 60 24 105 33 327 20 466
-7 77 -8 84 -19 135 -4 17 -9 44 -12 60 -7 37 -9 44 -23 76 -6 15 -12 35 -14
45 -5 30 -109 236 -128 254 -3 3 -20 24 -39 48 -39 50 -119 132 -130 132 -3 0
-13 9 -21 19 -7 11 -17 18 -20 16 -4 -2 -16 5 -28 15 -12 11 -26 20 -32 20 -5
0 -10 4 -10 10 0 5 -3 9 -7 8 -5 -1 -33 10 -64 24 -54 25 -93 38 -169 55 -19
4 -111 8 -204 8 l-170 0 -67 67 c-37 38 -72 68 -77 68 -5 0 -12 7 -16 15 -3 8
-12 15 -20 15 -8 0 -16 4 -18 9 -5 13 -86 61 -103 61 -8 0 -15 5 -15 10 0 6
-8 10 -18 10 -10 0 -22 3 -26 8 -4 4 -11 7 -14 8 -4 0 -14 3 -22 7 -26 10 -93
26 -145 33 -48 7 -224 12 -229 7z"/>
<path d="M1235 1578 c-68 -14 -135 -44 -135 -61 0 -6 -3 -8 -6 -4 -7 7 -60
-44 -57 -55 2 -4 -2 -8 -7 -8 -6 0 -10 -7 -10 -15 0 -8 -5 -15 -12 -15 -6 0
-9 -3 -5 -6 3 -4 -1 -21 -10 -38 -17 -32 -26 -149 -13 -176 35 -77 56 -114 75
-133 31 -32 75 -68 75 -61 0 4 11 -1 24 -9 40 -27 130 -38 196 -24 14 3 26 6
28 8 2 2 7 3 40 14 12 4 22 12 22 18 0 6 3 8 6 4 9 -9 104 93 110 119 4 13 10
24 15 24 5 0 8 3 8 8 -1 4 -1 9 0 12 4 8 13 73 14 95 1 33 -14 104 -24 111 -5
3 -7 10 -4 15 4 5 1 9 -4 9 -6 0 -11 7 -11 15 0 8 -9 23 -19 32 -11 9 -18 20
-15 25 3 5 2 7 -3 6 -4 -1 -23 12 -42 29 -19 18 -38 30 -42 27 -4 -2 -10 0
-14 6 -14 23 -121 40 -180 28z"/>
</g>
</svg>
